<svg xmlns="http://www.w3.org/2000/svg" viewBox="0 0 273.575 187.702">
    <g>
    	<rect x="0" y="49.701" fill="#010101" width="250" height="138.001"/>
    </g>
    <polygon fill="#010101" points="251.453,27.406 249.953,27.406 249.975,187.702 273.575,169.87 273.575,18.798 249.953,26.31 
    	249.953,27.406 251.453,27.406 251.907,28.836 270.575,22.9 270.575,168.376 252.975,181.675 252.953,27.406 251.453,27.406 
    	251.907,28.836 "/>
    <polygon fill="#FFFFFF" points="270.575,22.9 252.953,28.504 252.975,181.675 270.575,168.376 "/>
    <polygon fill="#FFFFFF" points="13.075,168.298 13.075,169.798 273.575,169.798 273.575,18.798 11.575,18.798 11.575,169.798 
    	13.075,169.798 13.075,168.298 14.575,168.298 14.575,21.798 270.575,21.798 270.575,166.798 13.075,166.798 13.075,168.298 
    	14.575,168.298 "/>
    <rect x="14.575" y="21.798" fill="#010101" width="256" height="145"/>
    <path fill="#010101" d="M11.419,17.449l0.001,0.762l0.141,151.587l23.713-17.816V0L11.419,17.449z M32.274,150.483l-17.719,13.312
    	L14.421,18.971l17.853-13.06V150.483z"/>
    <polygon fill="#FFFFFF" points="32.274,5.911 14.421,18.971 14.556,163.796 32.274,150.483 "/>
</svg>
