<svg xmlns="http://www.w3.org/2000/svg" viewBox="0 0 273.575 187.702">
    <g>
    	<rect x="22.809" y="47.815" fill="#010101" width="250" height="138.001"/>
    </g>
    <polygon fill="#010101" points="21.355,25.521 22.855,25.521 22.834,185.816 -0.767,167.984 -0.767,16.912 22.855,24.424 
    	22.855,25.521 21.355,25.521 20.901,26.95 2.233,21.015 2.233,166.49 19.834,179.789 19.855,25.521 21.355,25.521 20.901,26.95 "/>
    <polygon fill="#FFFFFF" points="2.233,21.015 19.855,26.618 19.834,179.789 2.233,166.49 "/>
    <polygon fill="#FFFFFF" points="259.733,166.412 259.733,167.912 -0.767,167.912 -0.767,16.912 261.233,16.912 261.233,167.912 
    	259.733,167.912 259.733,166.412 258.233,166.412 258.233,19.912 2.233,19.912 2.233,164.912 259.733,164.912 259.733,166.412 
    	258.233,166.412 "/>
    <rect x="2.233" y="19.912" fill="#010101" width="256" height="145"/>
    <path fill="#010101" d="M237.534-1.886v151.981l23.714,17.816l0.141-151.587l0.001-0.762L237.534-1.886z M240.534,4.025
    	l17.854,13.06l-0.135,144.825l-17.719-13.312V4.025z"/>
    <polygon fill="#FFFFFF" points="240.534,4.025 258.388,17.085 258.253,161.91 240.534,148.598 "/>
</svg>
