<svg xmlns="http://www.w3.org/2000/svg" viewBox="0 0 273.575 187.702">
    <g>
    	<rect x="-0.765" y="47.815" fill="#FFFFFF" width="250" height="138.001"/>
    </g>
    <polygon fill="#FFFFFF" points="250.688,25.52 249.188,25.52 249.209,185.816 272.81,167.983 272.81,16.911 249.188,24.423 
    	249.188,25.52 250.688,25.52 251.142,26.949 269.81,21.014 269.81,166.489 252.209,179.788 252.188,25.52 250.688,25.52 
    	251.142,26.949 "/>
    <polygon points="269.81,21.014 252.188,26.617 252.209,179.788 269.81,166.489 "/>
    <polygon points="12.31,166.411 12.31,167.911 272.81,167.911 272.81,16.911 10.81,16.911 10.81,167.911 12.31,167.911 
    	12.31,166.411 13.81,166.411 13.81,19.911 269.81,19.911 269.81,164.911 12.31,164.911 12.31,166.411 13.81,166.411 "/>
    <rect x="13.81" y="19.911" fill="#FFFFFF" width="256" height="145"/>
    <path fill="#FFFFFF" d="M10.654,15.563l0.001,0.762l0.141,151.587l23.713-17.816V-1.887L10.654,15.563z M31.509,148.597
    	l-17.719,13.312L13.656,17.084l17.854-13.06V148.597z"/>
    <polygon points="31.509,4.024 13.656,17.084 13.791,161.909 31.509,148.597 "/>
</svg>
