<svg xmlns="http://www.w3.org/2000/svg" viewBox="0 0 273.575 187.702" enable-background="new 0 0 273.575 187.702">
    <path fill="#fff" d="M22.81 47.815h250v138h-250zM21.355 25.52h1.5l-.02 160.296-23.602-17.833V16.91l23.622 7.513v1.097h-1.5l-.454 1.43-18.667-5.936V166.49l17.6 13.298.022-154.268h1.5l-.454 1.43z"/>
    <path d="M2.233 21.014l17.622 5.603-.02 153.17L2.232 166.49zM259.733 166.41v1.5H-.767v-151h262v151h-1.5v-1.5h-1.5V19.91h-256v145h257.5v1.5h-1.5z"/>
    <path fill="#fff" d="M2.233 19.91h256v145h-256zM237.534-1.887v151.98l23.714 17.817.14-151.587.002-.762-23.856-17.447zm3 5.91l17.854 13.06-.135 144.826-17.72-13.313V4.024z"/>
    <path d="M240.534 4.024l17.854 13.06-.135 144.825-17.72-13.313z"/>
</svg>
